<?xml version="1.0" standalone="no"?>
<!DOCTYPE svg PUBLIC "-//W3C//DTD SVG 20010904//EN" "http://www.w3.org/TR/2001/REC-SVG-20010904/DTD/svg10.dtd">
<svg version="1.0" xmlns="http://www.w3.org/2000/svg"
	width="762.000000pt" height="1280.000000pt" viewBox="0 0 762.000000 1280.000000"
	preserveAspectRatio="xMidYMid meet">
	<metadata>
Created by potrace 1.15, written by Peter Selinger 2001-2017
</metadata>
	<g transform="translate(0.000000,1280.000000) scale(0.100000,-0.100000)"
		fill="#003322" stroke="none">
		<path d="M3601 12330 c-7 -30 -15 -115 -18 -188 -4 -78 -9 -128 -14 -120 -5 7
-9 24 -10 38 -1 14 -5 -9 -9 -50 -9 -93 3 -218 30 -296 11 -32 43 -98 70 -145
27 -47 56 -101 64 -119 l13 -33 7 49 c11 70 18 96 25 89 3 -4 11 17 17 47 6
29 33 121 59 203 40 127 46 159 42 207 -4 50 -47 168 -61 168 -3 0 -3 -6 0
-14 4 -11 0 -13 -16 -9 -13 3 -25 0 -30 -7 -8 -12 -13 3 -55 156 l-17 62 -39
-2 c-21 0 -41 4 -42 9 -2 6 -10 -15 -16 -45z" />
		<path d="M2711 10203 c-1 -7 -11 -12 -23 -10 -22 2 -23 -2 -26 -81 -2 -52 3
-106 13 -143 22 -86 21 -88 -20 -79 -32 7 -35 6 -35 -15 0 -13 5 -36 11 -52 6
-15 15 -89 20 -164 9 -150 29 -223 77 -275 40 -44 81 -69 93 -57 11 11 58 130
91 228 30 90 21 235 -23 374 -18 57 -35 99 -36 95 -2 -5 -20 -9 -40 -8 l-38 1
-32 99 c-17 54 -32 93 -32 87z" />
		<path d="M4246 9986 c-61 -334 -89 -515 -90 -571 -1 -63 3 -78 39 -150 23 -46
47 -81 57 -83 24 -5 46 35 63 112 8 36 21 96 30 134 23 104 19 260 -9 361 -19
73 -24 81 -31 60 -7 -18 -10 -1 -14 66 -5 76 -9 90 -24 91 -10 1 -19 -7 -21
-20z" />
		<path d="M4965 9218 c-10 -34 -5 -68 16 -110 10 -20 19 -39 19 -40 0 -9 -56
-2 -62 7 -4 6 -8 0 -8 -12 0 -24 100 -223 112 -223 5 0 8 32 8 71 0 44 4 68
10 64 15 -9 11 152 -5 200 -7 22 -13 35 -14 28 -2 -18 -40 -3 -46 18 -8 25
-21 24 -30 -3z" />
		<path d="M5941 9127 c-2 -56 -29 -180 -62 -282 -30 -93 -57 -148 -44 -90 31
142 -150 -364 -194 -540 -42 -171 -81 -465 -81 -615 0 -120 49 -119 127 2 26
40 82 113 125 161 97 109 162 205 189 282 17 48 23 97 31 245 5 102 18 278 30
393 l21 208 -23 119 -22 120 -43 0 c-33 0 -45 4 -48 18 -3 9 -5 0 -6 -21z" />
		<path d="M3904 8976 c-112 -147 -144 -348 -77 -481 40 -79 69 -167 100 -295
31 -130 43 -430 24 -587 -37 -298 -119 -506 -299 -759 -144 -201 -222 -327
-311 -505 -141 -283 -198 -514 -187 -759 3 -74 15 -177 26 -229 11 -52 18 -96
16 -98 -2 -3 -7 4 -10 14 -5 15 -15 18 -70 15 -35 -2 -73 1 -84 7 -22 12 -19
26 -44 -229 -10 -104 -14 -126 -19 -95 -3 22 -7 -18 -8 -92 -1 -104 -4 -133
-14 -133 -8 0 -22 18 -32 40 -10 22 -22 37 -28 33 -6 -4 -7 -1 -2 7 7 12 -54
155 -63 146 -2 -2 10 -31 27 -65 33 -64 39 -86 19 -59 -11 14 -45 18 -195 23
-172 7 -181 7 -186 -11 -3 -11 -5 8 -6 40 -2 119 -10 45 -20 -184 -11 -243
-12 -251 -70 -410 -11 -30 -23 -84 -27 -120 l-6 -65 -81 -3 c-56 -1 -84 2 -90
10 -8 13 -6 -5 9 -67 10 -39 -11 -30 -44 20 -27 41 -30 53 -34 157 -3 62 -11
127 -18 143 -12 30 -12 30 -21 7 -5 -13 -14 -109 -21 -213 l-11 -189 -27 25
-27 26 -7 -41 -6 -41 -23 28 c-13 15 -44 56 -70 90 -32 41 -52 60 -62 57 -8
-4 -15 -1 -15 7 0 7 -2 10 -5 8 -2 -3 7 -41 21 -84 22 -66 27 -109 33 -240 4
-88 6 -161 5 -163 -4 -6 -79 46 -100 69 -11 13 -31 44 -44 69 -38 76 -77 116
-178 183 -53 35 -107 75 -119 88 -32 35 -54 95 -62 169 l-7 65 -13 -50 c-7
-27 -15 -117 -18 -200 -5 -169 9 -266 52 -348 82 -155 77 -140 82 -260 8 -172
-33 -547 -59 -547 -14 0 -68 92 -83 144 -8 27 -20 99 -25 160 -24 251 -47 350
-95 406 -18 21 -47 124 -91 325 -20 94 -43 180 -51 191 -28 43 -34 92 -34 264
0 188 -7 196 -35 41 -10 -51 -18 -171 -21 -296 -6 -234 -4 -224 -95 -373 -76
-125 -123 -166 -150 -134 -24 26 -29 64 -38 252 -8 179 -13 210 -34 210 -9 0
-16 -51 -25 -179 -27 -415 -86 -767 -157 -942 -20 -49 -28 -88 -31 -164 -9
-173 34 -510 83 -645 13 -35 22 -66 20 -67 -1 -2 -31 22 -67 53 -72 63 -108
89 -114 82 -3 -2 14 -35 37 -74 69 -117 107 -208 133 -321 33 -138 58 -216
108 -328 67 -151 77 -205 41 -205 -8 0 -41 14 -74 30 -33 17 -64 30 -69 30
-13 0 201 -400 262 -490 49 -71 190 -212 275 -275 356 -263 899 -421 1626
-475 83 -6 154 -14 159 -17 5 -3 144 -6 310 -6 l302 -1 -275 -6 -275 -5 115
-23 c224 -44 341 -55 540 -49 102 4 214 13 250 20 64 15 64 15 20 15 -52 0
-147 16 -230 37 -32 8 -75 16 -96 17 -38 1 -38 1 -6 5 18 2 74 -5 125 -17 114
-26 270 -39 320 -28 22 5 128 4 245 -2 393 -19 570 -12 752 31 102 24 261 86
350 138 36 20 94 45 130 55 234 64 471 169 645 287 61 41 142 87 180 103 294
123 576 293 691 417 95 104 192 283 255 471 28 83 43 110 88 161 213 246 266
463 182 747 -66 223 -50 408 74 855 29 105 56 206 60 225 3 19 9 43 11 53 9
29 -10 19 -36 -20 -36 -53 -124 -158 -188 -225 l-55 -56 -21 41 c-32 63 -41
56 -38 -29 l4 -76 -99 -102 c-54 -55 -131 -136 -172 -179 -40 -42 -74 -77 -76
-77 -1 0 -13 26 -25 58 -35 87 -101 211 -139 261 -29 39 -36 59 -48 136 -11
74 -24 113 -73 215 -33 69 -73 159 -89 200 -17 41 -30 69 -30 61 -1 -11 -4
-11 -15 -1 -8 6 -25 10 -38 8 -18 -2 -35 -26 -78 -110 -51 -97 -80 -146 -65
-107 9 23 -42 22 -78 -2 l-32 -21 25 23 c18 16 20 20 7 16 -10 -4 -50 -7 -88
-7 -58 0 -69 -3 -69 -17 0 -9 -3 -14 -6 -11 -3 4 7 71 21 150 22 117 26 159
21 230 -10 135 -53 287 -162 572 -36 92 -76 205 -89 250 -13 44 -24 74 -24 65
-1 -9 6 -38 14 -64 8 -27 13 -51 11 -53 -2 -2 -7 5 -10 16 -6 17 -20 20 -113
26 -74 5 -108 4 -113 -4 -7 -11 -57 143 -87 267 -19 83 -10 79 -168 88 -55 3
-116 8 -137 11 -29 4 -37 2 -41 -13 -3 -10 -3 99 0 242 6 309 -1 380 -52 487
-67 140 -75 260 -54 748 12 266 5 465 -16 465 -25 0 -93 -284 -185 -770 -34
-178 -62 -297 -82 -350 -50 -128 -144 -318 -173 -349 -23 -25 -28 -27 -41 -14
-22 22 -32 120 -43 408 -12 305 -28 408 -77 504 -117 226 -156 441 -174 949
-11 350 -17 435 -36 547 -29 167 -52 221 -168 390 -89 131 -145 305 -169 524
l-12 114 -31 -42z m-824 -8906 c20 -6 21 -8 5 -8 -11 0 -31 4 -45 8 -20 6 -21
8 -5 8 11 0 31 -4 45 -8z m125 -20 c27 -7 27 -8 5 -8 -14 0 -38 4 -55 8 -27 7
-27 8 -5 8 14 0 39 -4 55 -8z m118 -17 c-13 -2 -33 -2 -45 0 -13 2 -3 4 22 4
25 0 35 -2 23 -4z m425 0 c-10 -2 -28 -2 -40 0 -13 2 -5 4 17 4 22 1 32 -1 23
-4z m-320 -10 c-16 -2 -40 -2 -55 0 -16 2 -3 4 27 4 30 0 43 -2 28 -4z m235 0
c-13 -2 -35 -2 -50 0 -16 2 -5 4 22 4 28 0 40 -2 28 -4z" />
		<path d="M1814 8425 c-4 -8 -4 -44 -2 -78 4 -63 4 -63 -22 -59 -14 3 -29 10
-33 16 -4 6 -7 -26 -5 -71 3 -71 6 -85 28 -108 14 -15 39 -33 56 -40 17 -7 44
-29 59 -49 16 -21 32 -33 37 -28 18 18 20 106 4 152 -17 48 -12 67 10 35 51
-77 59 -72 59 33 -1 66 -5 85 -32 138 l-31 60 -53 3 c-29 1 -56 4 -61 7 -4 3
-11 -2 -14 -11z" />
		<path d="M2729 7862 c-8 -30 -10 -90 -7 -190 3 -81 4 -142 1 -136 -2 7 -13 10
-23 7 -16 -4 -20 0 -20 18 0 12 -2 20 -6 17 -3 -3 5 -93 17 -200 22 -192 22
-196 5 -288 -27 -138 -8 -240 44 -240 21 0 84 74 138 162 36 60 112 254 132
337 16 66 8 246 -13 311 -8 25 -15 38 -16 29 -1 -11 -12 -18 -31 -21 -29 -4
-30 -3 -58 76 -16 45 -35 97 -41 118 -11 34 -14 36 -61 40 l-49 3 -12 -43z" />
		<path d="M5780 7245 c0 -3 7 -22 16 -43 9 -20 20 -49 24 -64 8 -26 7 -28 -21
-28 -16 0 -29 -1 -29 -3 0 -1 13 -33 29 -71 l29 -69 16 25 c17 26 36 82 36
105 0 7 -6 13 -13 13 -11 0 -10 12 5 56 10 31 17 61 16 66 -4 10 -108 22 -108
13z" />
		<path d="M6543 7163 c-36 -5 -39 -11 -46 -100 -5 -61 7 -62 48 -4 21 31 47
115 34 109 -2 0 -19 -3 -36 -5z" />
		<path d="M1240 7113 c0 -12 71 -120 90 -138 18 -16 23 -17 31 -5 10 15 5 63
-12 115 -8 28 -13 30 -59 32 -28 1 -50 -1 -50 -4z" />
		<path d="M6510 7005 c-13 -17 -18 -126 -6 -122 16 5 64 78 71 107 5 23 3 25
-25 25 -18 0 -35 -4 -40 -10z" />
		<path d="M1172 6956 c20 -39 71 -111 86 -123 8 -7 19 -10 23 -7 12 7 11 61 -2
107 -8 30 -15 37 -37 39 -15 0 -39 2 -54 3 -25 2 -26 0 -16 -19z" />
		<path d="M4546 6744 c-3 -26 -6 -73 -6 -104 0 -56 1 -57 25 -52 22 4 25 1 26
-29 1 -23 3 -27 6 -12 4 19 -33 232 -42 241 -1 1 -5 -18 -9 -44z" />
		<path d="M4532 6545 c0 -16 2 -22 5 -12 2 9 2 23 0 30 -3 6 -5 -1 -5 -18z" />
		<path d="M7020 6364 c0 -77 3 -143 6 -147 11 -11 35 5 49 34 8 15 15 49 15 74
0 44 -1 45 -21 34 -21 -11 -21 -10 -5 12 10 15 16 44 16 79 0 54 0 55 -30 55
l-30 0 0 -141z" />
		<path d="M4602 6465 c0 -16 2 -22 5 -12 2 9 2 23 0 30 -3 6 -5 -1 -5 -18z" />
		<path d="M2412 6255 c-1 -6 -24 -8 -52 -7 -31 3 -50 0 -50 -7 0 -21 37 -107
63 -144 l26 -38 11 41 c6 22 9 69 7 103 -2 34 -4 58 -5 52z" />
		<path d="M1815 6149 c4 -19 15 -54 24 -79 l17 -45 -59 3 c-58 4 -59 3 -52 -20
17 -57 55 -128 77 -142 32 -21 79 -29 97 -17 19 12 19 105 0 128 -13 15 -11
16 10 10 13 -3 34 -1 48 4 24 9 25 13 21 64 -7 80 -38 111 -115 114 -31 1 -61
5 -66 8 -5 3 -6 -8 -2 -28z" />
		<path d="M2250 6093 c0 -10 20 -53 44 -97 48 -87 51 -86 66 16 13 87 8 94 -56
97 -46 2 -54 -1 -54 -16z" />
		<path d="M5989 5751 c-16 -49 -17 -51 -34 -45 -8 4 -12 11 -8 18 13 22 -6 0
-50 -60 -67 -91 -78 -117 -77 -182 1 -31 -2 -77 -6 -101 -5 -34 -2 -54 17 -92
12 -27 28 -49 34 -49 20 0 99 56 131 92 48 55 70 127 79 255 6 96 4 118 -11
152 -11 26 -25 41 -40 44 -20 3 -25 -2 -35 -32z" />
		<path d="M360 5724 c0 -9 93 -104 101 -104 22 0 5 35 -31 68 -36 31 -70 49
-70 36z" />
		<path d="M279 5572 c15 -27 90 -96 97 -89 10 10 -5 57 -18 57 -6 0 -22 10 -35
22 -29 28 -57 34 -44 10z" />
		<path d="M1019 5088 c-6 -12 -29 -67 -49 -121 -23 -59 -39 -92 -42 -81 -7 38
-60 -128 -65 -208 -5 -72 -4 -78 20 -102 62 -62 147 -12 147 86 0 21 6 31 24
38 33 12 44 35 55 116 11 80 22 245 14 227 -2 -7 -17 -13 -33 -13 -24 0 -29 5
-34 35 -8 43 -22 52 -37 23z" />
		<path d="M2482 5005 c0 -16 2 -22 5 -12 2 9 2 23 0 30 -3 6 -5 -1 -5 -18z" />
		<path d="M145 5000 c3 -5 25 -16 50 -26 55 -21 119 -14 149 16 l21 21 -112 -2
c-62 -1 -111 -5 -108 -9z" />
		<path d="M5853 4910 c0 -25 2 -35 4 -22 2 12 2 32 0 45 -2 12 -4 2 -4 -23z" />
		<path d="M6977 4928 c-3 -13 -9 -49 -12 -80 -4 -32 -11 -56 -15 -53 -5 3 -11
-8 -15 -24 -4 -17 -55 -88 -116 -162 -94 -112 -109 -135 -104 -158 4 -22 -8
-88 -31 -163 -3 -11 2 -18 14 -20 19 -3 19 -4 2 -70 l-18 -68 52 0 c70 1 121
27 184 94 103 109 127 205 112 446 -9 137 -28 261 -43 276 -2 3 -7 -5 -10 -18z" />
		<path d="M40 4863 c0 -13 89 -43 125 -43 44 0 105 22 105 38 0 4 -52 7 -115 7
-63 0 -115 -1 -115 -2z" />
	</g>
</svg>